{
    "asset" : {
        "generator" : "Khronos glTF Blender I/O v1.2.75",
        "version" : "2.0"
    },
    "scene" : 0,
    "scenes" : [
        {
            "extras" : {
                "send2ue" : {
                    "add_leaf_bones" : 0,
                    "advanced_ui_import" : 0,
                    "always_use_unreal_scene_scale" : 1,
                    "apply_scale_options" : "FBX_SCALE_NONE",
                    "apply_unit_scale" : 1,
                    "armature_nodetype" : "NULL",
                    "auto_stash_active_action" : 1,
                    "auto_sync_control_nla_to_source" : 1,
                    "axis_forward" : "-Y",
                    "axis_up" : "Z",
                    "bake_anim" : 1,
                    "bake_anim_force_startend_keying" : 1,
                    "bake_anim_simplify_factor" : 0,
                    "bake_anim_step" : 1,
                    "bake_anim_use_all_bones" : 1,
                    "bake_space_transform" : 0,
                    "disk_animation_folder_path" : "C:/",
                    "disk_mesh_folder_path" : "C:/",
                    "do_not_show_again" : 0,
                    "draw" : "<bound method SendToUnrealPreferences.draw of <bpy_struct, SendToUnrealPreferences at 0x000001AD74A7EEB8>>",
                    "error_message" : "",
                    "export_all_actions" : 1,
                    "global_scale" : 1,
                    "import_animations" : 1,
                    "import_lods" : 0,
                    "import_materials" : 1,
                    "import_textures" : 1,
                    "incorrect_disk_animation_folder_path" : 0,
                    "incorrect_disk_mesh_folder_path" : 0,
                    "mesh_smooth_type" : "FACE",
                    "options_type" : "paths",
                    "path_mode" : "send_to_unreal",
                    "primary_bone_axis" : "Y",
                    "secondary_bone_axis" : "X",
                    "show_fbx_settings" : 0,
                    "unreal_animation_folder_path" : "/Game/untitled_category/untitled_asset/animations/",
                    "unreal_mesh_folder_path" : "/Game/untitled_category/untitled_asset/",
                    "unreal_skeleton_asset_path" : "",
                    "use_armature_deform_only" : 0,
                    "use_custom_props" : 0,
                    "use_mesh_edges" : 0,
                    "use_mesh_modifiers" : 1,
                    "use_metadata" : 1,
                    "use_object_origin" : 0,
                    "use_subsurf" : 0,
                    "use_tspace" : 0,
                    "use_ue2rigify" : 0,
                    "validate_materials" : 0,
                    "validate_textures" : 0
                },
                "vr_landmarks" : [
                    {
                        "type" : 0
                    }
                ],
                "glTF2ExportSettings" : {
                    "export_all_influences" : 0,
                    "export_animations" : 0,
                    "export_apply" : 1,
                    "export_cameras" : 0,
                    "export_colors" : 1,
                    "export_copyright" : "",
                    "export_current_frame" : 0,
                    "export_def_bones" : 0,
                    "export_displacement" : 0,
                    "export_draco_generic_quantization" : 12,
                    "export_draco_mesh_compression_enable" : 0,
                    "export_draco_mesh_compression_level" : 6,
                    "export_draco_normal_quantization" : 10,
                    "export_draco_position_quantization" : 14,
                    "export_draco_texcoord_quantization" : 12,
                    "export_extras" : 1,
                    "export_force_sampling" : 1,
                    "export_format" : "GLTF_SEPARATE",
                    "export_frame_range" : 1,
                    "export_frame_step" : 1,
                    "export_image_format" : "AUTO",
                    "export_lights" : 0,
                    "export_materials" : 1,
                    "export_morph" : 0,
                    "export_morph_normal" : 1,
                    "export_morph_tangent" : 0,
                    "export_nla_strips" : 1,
                    "export_normals" : 1,
                    "export_selected" : 0,
                    "export_skins" : 0,
                    "export_tangents" : 0,
                    "export_texcoords" : 1,
                    "export_texture_dir" : "Textures",
                    "export_yup" : 1
                }
            },
            "name" : "Scene_Room01",
            "nodes" : [
                1
            ]
        },
        {
            "extras" : {
                "send2ue" : {
                    "add_leaf_bones" : 0,
                    "advanced_ui_import" : 0,
                    "always_use_unreal_scene_scale" : 1,
                    "apply_scale_options" : "FBX_SCALE_NONE",
                    "apply_unit_scale" : 1,
                    "armature_nodetype" : "NULL",
                    "auto_stash_active_action" : 1,
                    "auto_sync_control_nla_to_source" : 1,
                    "axis_forward" : "-Y",
                    "axis_up" : "Z",
                    "bake_anim" : 1,
                    "bake_anim_force_startend_keying" : 1,
                    "bake_anim_simplify_factor" : 0,
                    "bake_anim_step" : 1,
                    "bake_anim_use_all_bones" : 1,
                    "bake_space_transform" : 0,
                    "disk_animation_folder_path" : "C:/",
                    "disk_mesh_folder_path" : "C:/",
                    "do_not_show_again" : 0,
                    "draw" : "<bound method SendToUnrealPreferences.draw of <bpy_struct, SendToUnrealPreferences at 0x0000014FD0459C38>>",
                    "error_message" : "",
                    "export_all_actions" : 1,
                    "global_scale" : 1,
                    "import_animations" : 1,
                    "import_lods" : 0,
                    "import_materials" : 1,
                    "import_textures" : 1,
                    "incorrect_disk_animation_folder_path" : 0,
                    "incorrect_disk_mesh_folder_path" : 0,
                    "mesh_smooth_type" : "FACE",
                    "options_type" : "paths",
                    "path_mode" : "send_to_unreal",
                    "primary_bone_axis" : "Y",
                    "secondary_bone_axis" : "X",
                    "show_fbx_settings" : 0,
                    "unreal_animation_folder_path" : "/Game/untitled_category/untitled_asset/animations/",
                    "unreal_mesh_folder_path" : "/Game/untitled_category/untitled_asset/",
                    "unreal_skeleton_asset_path" : "",
                    "use_armature_deform_only" : 0,
                    "use_custom_props" : 0,
                    "use_mesh_edges" : 0,
                    "use_mesh_modifiers" : 1,
                    "use_metadata" : 1,
                    "use_object_origin" : 0,
                    "use_subsurf" : 0,
                    "use_tspace" : 0,
                    "use_ue2rigify" : 0,
                    "validate_materials" : 0,
                    "validate_textures" : 0
                }
            },
            "name" : "Scene_Room02"
        },
        {
            "extras" : {
                "send2ue" : {
                    "add_leaf_bones" : 0,
                    "advanced_ui_import" : 0,
                    "always_use_unreal_scene_scale" : 1,
                    "apply_scale_options" : "FBX_SCALE_NONE",
                    "apply_unit_scale" : 1,
                    "armature_nodetype" : "NULL",
                    "auto_stash_active_action" : 1,
                    "auto_sync_control_nla_to_source" : 1,
                    "axis_forward" : "-Y",
                    "axis_up" : "Z",
                    "bake_anim" : 1,
                    "bake_anim_force_startend_keying" : 1,
                    "bake_anim_simplify_factor" : 0,
                    "bake_anim_step" : 1,
                    "bake_anim_use_all_bones" : 1,
                    "bake_space_transform" : 0,
                    "disk_animation_folder_path" : "C:/",
                    "disk_mesh_folder_path" : "C:/",
                    "do_not_show_again" : 0,
                    "draw" : "<bound method SendToUnrealPreferences.draw of <bpy_struct, SendToUnrealPreferences at 0x000001D52AFEA9B8>>",
                    "error_message" : "",
                    "export_all_actions" : 1,
                    "global_scale" : 1,
                    "import_animations" : 1,
                    "import_lods" : 0,
                    "import_materials" : 1,
                    "import_textures" : 1,
                    "incorrect_disk_animation_folder_path" : 0,
                    "incorrect_disk_mesh_folder_path" : 0,
                    "mesh_smooth_type" : "FACE",
                    "options_type" : "paths",
                    "path_mode" : "send_to_unreal",
                    "primary_bone_axis" : "Y",
                    "secondary_bone_axis" : "X",
                    "show_fbx_settings" : 0,
                    "unreal_animation_folder_path" : "/Game/untitled_category/untitled_asset/animations/",
                    "unreal_mesh_folder_path" : "/Game/untitled_category/untitled_asset/",
                    "unreal_skeleton_asset_path" : "",
                    "use_armature_deform_only" : 0,
                    "use_custom_props" : 0,
                    "use_mesh_edges" : 0,
                    "use_mesh_modifiers" : 1,
                    "use_metadata" : 1,
                    "use_object_origin" : 0,
                    "use_subsurf" : 0,
                    "use_tspace" : 0,
                    "use_ue2rigify" : 0,
                    "validate_materials" : 0,
                    "validate_textures" : 0
                }
            },
            "name" : "Scene_Room03"
        },
        {
            "extras" : {
                "send2ue" : {
                    "add_leaf_bones" : 0,
                    "advanced_ui_import" : 0,
                    "always_use_unreal_scene_scale" : 1,
                    "apply_scale_options" : "FBX_SCALE_NONE",
                    "apply_unit_scale" : 1,
                    "armature_nodetype" : "NULL",
                    "auto_stash_active_action" : 1,
                    "auto_sync_control_nla_to_source" : 1,
                    "axis_forward" : "-Y",
                    "axis_up" : "Z",
                    "bake_anim" : 1,
                    "bake_anim_force_startend_keying" : 1,
                    "bake_anim_simplify_factor" : 0,
                    "bake_anim_step" : 1,
                    "bake_anim_use_all_bones" : 1,
                    "bake_space_transform" : 0,
                    "disk_animation_folder_path" : "C:/",
                    "disk_mesh_folder_path" : "C:/",
                    "do_not_show_again" : 0,
                    "draw" : "<bound method SendToUnrealPreferences.draw of <bpy_struct, SendToUnrealPreferences at 0x000001FC1C65A6E8>>",
                    "error_message" : "",
                    "export_all_actions" : 1,
                    "global_scale" : 1,
                    "import_animations" : 1,
                    "import_lods" : 0,
                    "import_materials" : 1,
                    "import_textures" : 1,
                    "incorrect_disk_animation_folder_path" : 0,
                    "incorrect_disk_mesh_folder_path" : 0,
                    "mesh_smooth_type" : "FACE",
                    "options_type" : "paths",
                    "path_mode" : "send_to_unreal",
                    "primary_bone_axis" : "Y",
                    "secondary_bone_axis" : "X",
                    "show_fbx_settings" : 0,
                    "unreal_animation_folder_path" : "/Game/untitled_category/untitled_asset/animations/",
                    "unreal_mesh_folder_path" : "/Game/untitled_category/untitled_asset/",
                    "unreal_skeleton_asset_path" : "",
                    "use_armature_deform_only" : 0,
                    "use_custom_props" : 0,
                    "use_mesh_edges" : 0,
                    "use_mesh_modifiers" : 1,
                    "use_metadata" : 1,
                    "use_object_origin" : 0,
                    "use_subsurf" : 0,
                    "use_tspace" : 0,
                    "use_ue2rigify" : 0,
                    "validate_materials" : 0,
                    "validate_textures" : 0
                }
            },
            "name" : "Scene_Room04"
        }
    ],
    "nodes" : [
        {
            "mesh" : 0,
            "name" : "Obj_Shelf001_collider",
            "translation" : [
                0.487216591835022,
                -0.012161586433649063,
                0.10836029052734375
            ]
        },
        {
            "children" : [
                0
            ],
            "mesh" : 1,
            "name" : "Obj_Shelf001",
            "translation" : [
                -1.4521334171295166,
                0.021695099771022797,
                1.2039709091186523
            ]
        }
    ],
    "materials" : [
        {
            "doubleSided" : true,
            "emissiveFactor" : [
                0,
                0,
                0
            ],
            "name" : "Texture_Paint",
            "pbrMetallicRoughness" : {
                "baseColorTexture" : {
                    "index" : 0,
                    "texCoord" : 0
                },
                "metallicFactor" : 0,
                "roughnessFactor" : 1
            }
        },
        {
            "doubleSided" : true,
            "emissiveFactor" : [
                0,
                0,
                0
            ],
            "name" : "Mat_Material",
            "pbrMetallicRoughness" : {
                "baseColorTexture" : {
                    "index" : 1,
                    "texCoord" : 0
                },
                "metallicFactor" : 0,
                "roughnessFactor" : 1
            }
        }
    ],
    "meshes" : [
        {
            "name" : "Cube.179",
            "primitives" : [
                {
                    "attributes" : {
                        "POSITION" : 0,
                        "NORMAL" : 1,
                        "TEXCOORD_0" : 2
                    },
                    "indices" : 3
                }
            ]
        },
        {
            "name" : "Cube.031",
            "primitives" : [
                {
                    "attributes" : {
                        "POSITION" : 4,
                        "NORMAL" : 5,
                        "TEXCOORD_0" : 6
                    },
                    "indices" : 7,
                    "material" : 0
                },
                {
                    "attributes" : {
                        "POSITION" : 8,
                        "NORMAL" : 9,
                        "TEXCOORD_0" : 10
                    },
                    "indices" : 11,
                    "material" : 1
                }
            ]
        }
    ],
    "textures" : [
        {
            "source" : 0
        },
        {
            "source" : 0
        }
    ],
    "images" : [
        {
            "mimeType" : "image/jpeg",
            "name" : "Textures-Painted",
            "uri" : "Textures/Textures-Painted.jpg"
        }
    ],
    "accessors" : [
        {
            "bufferView" : 0,
            "componentType" : 5126,
            "count" : 24,
            "max" : [
                0.014612019062042236,
                2.648153305053711,
                0.20504455268383026
            ],
            "min" : [
                -0.9843121767044067,
                -0.004353542346507311,
                -0.5096661448478699
            ],
            "type" : "VEC3"
        },
        {
            "bufferView" : 1,
            "componentType" : 5126,
            "count" : 24,
            "type" : "VEC3"
        },
        {
            "bufferView" : 2,
            "componentType" : 5126,
            "count" : 24,
            "type" : "VEC2"
        },
        {
            "bufferView" : 3,
            "componentType" : 5123,
            "count" : 36,
            "type" : "SCALAR"
        },
        {
            "bufferView" : 4,
            "componentType" : 5126,
            "count" : 480,
            "max" : [
                0.4497630000114441,
                1.5366259813308716,
                0.2422010898590088
            ],
            "min" : [
                -0.45567551255226135,
                0.0009304825216531754,
                -0.26226481795310974
            ],
            "type" : "VEC3"
        },
        {
            "bufferView" : 5,
            "componentType" : 5126,
            "count" : 480,
            "type" : "VEC3"
        },
        {
            "bufferView" : 6,
            "componentType" : 5126,
            "count" : 480,
            "type" : "VEC2"
        },
        {
            "bufferView" : 7,
            "componentType" : 5123,
            "count" : 708,
            "type" : "SCALAR"
        },
        {
            "bufferView" : 8,
            "componentType" : 5126,
            "count" : 832,
            "max" : [
                0.249660462141037,
                2.6784212589263916,
                0.37786778807640076
            ],
            "min" : [
                -0.4586331844329834,
                1.525139570236206,
                -0.2688681483268738
            ],
            "type" : "VEC3"
        },
        {
            "bufferView" : 9,
            "componentType" : 5126,
            "count" : 832,
            "type" : "VEC3"
        },
        {
            "bufferView" : 10,
            "componentType" : 5126,
            "count" : 832,
            "type" : "VEC2"
        },
        {
            "bufferView" : 11,
            "componentType" : 5123,
            "count" : 2436,
            "type" : "SCALAR"
        }
    ],
    "bufferViews" : [
        {
            "buffer" : 0,
            "byteLength" : 288,
            "byteOffset" : 0
        },
        {
            "buffer" : 0,
            "byteLength" : 288,
            "byteOffset" : 288
        },
        {
            "buffer" : 0,
            "byteLength" : 192,
            "byteOffset" : 576
        },
        {
            "buffer" : 0,
            "byteLength" : 72,
            "byteOffset" : 768
        },
        {
            "buffer" : 0,
            "byteLength" : 5760,
            "byteOffset" : 840
        },
        {
            "buffer" : 0,
            "byteLength" : 5760,
            "byteOffset" : 6600
        },
        {
            "buffer" : 0,
            "byteLength" : 3840,
            "byteOffset" : 12360
        },
        {
            "buffer" : 0,
            "byteLength" : 1416,
            "byteOffset" : 16200
        },
        {
            "buffer" : 0,
            "byteLength" : 9984,
            "byteOffset" : 17616
        },
        {
            "buffer" : 0,
            "byteLength" : 9984,
            "byteOffset" : 27600
        },
        {
            "buffer" : 0,
            "byteLength" : 6656,
            "byteOffset" : 37584
        },
        {
            "buffer" : 0,
            "byteLength" : 4872,
            "byteOffset" : 44240
        }
    ],
    "buffers" : [
        {
            "byteLength" : 49112,
            "uri" : "Obj_Shelf001.bin"
        }
    ]
}
