{
    "asset" : {
        "generator" : "Khronos glTF Blender I/O v1.2.75",
        "version" : "2.0"
    },
    "scene" : 0,
    "scenes" : [
        {
            "extras" : {
                "send2ue" : {
                    "add_leaf_bones" : 0,
                    "advanced_ui_import" : 0,
                    "always_use_unreal_scene_scale" : 1,
                    "apply_scale_options" : "FBX_SCALE_NONE",
                    "apply_unit_scale" : 1,
                    "armature_nodetype" : "NULL",
                    "auto_stash_active_action" : 1,
                    "auto_sync_control_nla_to_source" : 1,
                    "axis_forward" : "-Y",
                    "axis_up" : "Z",
                    "bake_anim" : 1,
                    "bake_anim_force_startend_keying" : 1,
                    "bake_anim_simplify_factor" : 0,
                    "bake_anim_step" : 1,
                    "bake_anim_use_all_bones" : 1,
                    "bake_space_transform" : 0,
                    "disk_animation_folder_path" : "C:/",
                    "disk_mesh_folder_path" : "C:/",
                    "do_not_show_again" : 0,
                    "draw" : "<bound method SendToUnrealPreferences.draw of <bpy_struct, SendToUnrealPreferences at 0x00000278A8A7E8D8>>",
                    "error_message" : "",
                    "export_all_actions" : 1,
                    "global_scale" : 1,
                    "import_animations" : 1,
                    "import_lods" : 0,
                    "import_materials" : 1,
                    "import_textures" : 1,
                    "incorrect_disk_animation_folder_path" : 0,
                    "incorrect_disk_mesh_folder_path" : 0,
                    "mesh_smooth_type" : "FACE",
                    "options_type" : "paths",
                    "path_mode" : "send_to_unreal",
                    "primary_bone_axis" : "Y",
                    "secondary_bone_axis" : "X",
                    "show_fbx_settings" : 0,
                    "unreal_animation_folder_path" : "/Game/untitled_category/untitled_asset/animations/",
                    "unreal_mesh_folder_path" : "/Game/untitled_category/untitled_asset/",
                    "unreal_skeleton_asset_path" : "",
                    "use_armature_deform_only" : 0,
                    "use_custom_props" : 0,
                    "use_mesh_edges" : 0,
                    "use_mesh_modifiers" : 1,
                    "use_metadata" : 1,
                    "use_object_origin" : 0,
                    "use_subsurf" : 0,
                    "use_tspace" : 0,
                    "use_ue2rigify" : 0,
                    "validate_materials" : 0,
                    "validate_textures" : 0
                },
                "vr_landmarks" : [
                    {
                        "type" : 0
                    }
                ],
                "glTF2ExportSettings" : {
                    "export_all_influences" : 0,
                    "export_animations" : 0,
                    "export_apply" : 1,
                    "export_cameras" : 0,
                    "export_colors" : 1,
                    "export_copyright" : "",
                    "export_current_frame" : 0,
                    "export_def_bones" : 0,
                    "export_displacement" : 0,
                    "export_draco_generic_quantization" : 12,
                    "export_draco_mesh_compression_enable" : 0,
                    "export_draco_mesh_compression_level" : 6,
                    "export_draco_normal_quantization" : 10,
                    "export_draco_position_quantization" : 14,
                    "export_draco_texcoord_quantization" : 12,
                    "export_extras" : 1,
                    "export_force_sampling" : 1,
                    "export_format" : "GLTF_SEPARATE",
                    "export_frame_range" : 1,
                    "export_frame_step" : 1,
                    "export_image_format" : "AUTO",
                    "export_lights" : 0,
                    "export_materials" : 1,
                    "export_morph" : 0,
                    "export_morph_normal" : 1,
                    "export_morph_tangent" : 0,
                    "export_nla_strips" : 1,
                    "export_normals" : 1,
                    "export_selected" : 0,
                    "export_skins" : 0,
                    "export_tangents" : 0,
                    "export_texcoords" : 1,
                    "export_texture_dir" : "Textures",
                    "export_yup" : 1
                }
            },
            "name" : "Scene_Room01",
            "nodes" : [
                1
            ]
        },
        {
            "extras" : {
                "send2ue" : {
                    "add_leaf_bones" : 0,
                    "advanced_ui_import" : 0,
                    "always_use_unreal_scene_scale" : 1,
                    "apply_scale_options" : "FBX_SCALE_NONE",
                    "apply_unit_scale" : 1,
                    "armature_nodetype" : "NULL",
                    "auto_stash_active_action" : 1,
                    "auto_sync_control_nla_to_source" : 1,
                    "axis_forward" : "-Y",
                    "axis_up" : "Z",
                    "bake_anim" : 1,
                    "bake_anim_force_startend_keying" : 1,
                    "bake_anim_simplify_factor" : 0,
                    "bake_anim_step" : 1,
                    "bake_anim_use_all_bones" : 1,
                    "bake_space_transform" : 0,
                    "disk_animation_folder_path" : "C:/",
                    "disk_mesh_folder_path" : "C:/",
                    "do_not_show_again" : 0,
                    "draw" : "<bound method SendToUnrealPreferences.draw of <bpy_struct, SendToUnrealPreferences at 0x0000014FD0459C38>>",
                    "error_message" : "",
                    "export_all_actions" : 1,
                    "global_scale" : 1,
                    "import_animations" : 1,
                    "import_lods" : 0,
                    "import_materials" : 1,
                    "import_textures" : 1,
                    "incorrect_disk_animation_folder_path" : 0,
                    "incorrect_disk_mesh_folder_path" : 0,
                    "mesh_smooth_type" : "FACE",
                    "options_type" : "paths",
                    "path_mode" : "send_to_unreal",
                    "primary_bone_axis" : "Y",
                    "secondary_bone_axis" : "X",
                    "show_fbx_settings" : 0,
                    "unreal_animation_folder_path" : "/Game/untitled_category/untitled_asset/animations/",
                    "unreal_mesh_folder_path" : "/Game/untitled_category/untitled_asset/",
                    "unreal_skeleton_asset_path" : "",
                    "use_armature_deform_only" : 0,
                    "use_custom_props" : 0,
                    "use_mesh_edges" : 0,
                    "use_mesh_modifiers" : 1,
                    "use_metadata" : 1,
                    "use_object_origin" : 0,
                    "use_subsurf" : 0,
                    "use_tspace" : 0,
                    "use_ue2rigify" : 0,
                    "validate_materials" : 0,
                    "validate_textures" : 0
                }
            },
            "name" : "Scene_Room02"
        },
        {
            "extras" : {
                "send2ue" : {
                    "add_leaf_bones" : 0,
                    "advanced_ui_import" : 0,
                    "always_use_unreal_scene_scale" : 1,
                    "apply_scale_options" : "FBX_SCALE_NONE",
                    "apply_unit_scale" : 1,
                    "armature_nodetype" : "NULL",
                    "auto_stash_active_action" : 1,
                    "auto_sync_control_nla_to_source" : 1,
                    "axis_forward" : "-Y",
                    "axis_up" : "Z",
                    "bake_anim" : 1,
                    "bake_anim_force_startend_keying" : 1,
                    "bake_anim_simplify_factor" : 0,
                    "bake_anim_step" : 1,
                    "bake_anim_use_all_bones" : 1,
                    "bake_space_transform" : 0,
                    "disk_animation_folder_path" : "C:/",
                    "disk_mesh_folder_path" : "C:/",
                    "do_not_show_again" : 0,
                    "draw" : "<bound method SendToUnrealPreferences.draw of <bpy_struct, SendToUnrealPreferences at 0x000001D52AFEA9B8>>",
                    "error_message" : "",
                    "export_all_actions" : 1,
                    "global_scale" : 1,
                    "import_animations" : 1,
                    "import_lods" : 0,
                    "import_materials" : 1,
                    "import_textures" : 1,
                    "incorrect_disk_animation_folder_path" : 0,
                    "incorrect_disk_mesh_folder_path" : 0,
                    "mesh_smooth_type" : "FACE",
                    "options_type" : "paths",
                    "path_mode" : "send_to_unreal",
                    "primary_bone_axis" : "Y",
                    "secondary_bone_axis" : "X",
                    "show_fbx_settings" : 0,
                    "unreal_animation_folder_path" : "/Game/untitled_category/untitled_asset/animations/",
                    "unreal_mesh_folder_path" : "/Game/untitled_category/untitled_asset/",
                    "unreal_skeleton_asset_path" : "",
                    "use_armature_deform_only" : 0,
                    "use_custom_props" : 0,
                    "use_mesh_edges" : 0,
                    "use_mesh_modifiers" : 1,
                    "use_metadata" : 1,
                    "use_object_origin" : 0,
                    "use_subsurf" : 0,
                    "use_tspace" : 0,
                    "use_ue2rigify" : 0,
                    "validate_materials" : 0,
                    "validate_textures" : 0
                }
            },
            "name" : "Scene_Room03"
        },
        {
            "extras" : {
                "send2ue" : {
                    "add_leaf_bones" : 0,
                    "advanced_ui_import" : 0,
                    "always_use_unreal_scene_scale" : 1,
                    "apply_scale_options" : "FBX_SCALE_NONE",
                    "apply_unit_scale" : 1,
                    "armature_nodetype" : "NULL",
                    "auto_stash_active_action" : 1,
                    "auto_sync_control_nla_to_source" : 1,
                    "axis_forward" : "-Y",
                    "axis_up" : "Z",
                    "bake_anim" : 1,
                    "bake_anim_force_startend_keying" : 1,
                    "bake_anim_simplify_factor" : 0,
                    "bake_anim_step" : 1,
                    "bake_anim_use_all_bones" : 1,
                    "bake_space_transform" : 0,
                    "disk_animation_folder_path" : "C:/",
                    "disk_mesh_folder_path" : "C:/",
                    "do_not_show_again" : 0,
                    "draw" : "<bound method SendToUnrealPreferences.draw of <bpy_struct, SendToUnrealPreferences at 0x000001FC1C65A6E8>>",
                    "error_message" : "",
                    "export_all_actions" : 1,
                    "global_scale" : 1,
                    "import_animations" : 1,
                    "import_lods" : 0,
                    "import_materials" : 1,
                    "import_textures" : 1,
                    "incorrect_disk_animation_folder_path" : 0,
                    "incorrect_disk_mesh_folder_path" : 0,
                    "mesh_smooth_type" : "FACE",
                    "options_type" : "paths",
                    "path_mode" : "send_to_unreal",
                    "primary_bone_axis" : "Y",
                    "secondary_bone_axis" : "X",
                    "show_fbx_settings" : 0,
                    "unreal_animation_folder_path" : "/Game/untitled_category/untitled_asset/animations/",
                    "unreal_mesh_folder_path" : "/Game/untitled_category/untitled_asset/",
                    "unreal_skeleton_asset_path" : "",
                    "use_armature_deform_only" : 0,
                    "use_custom_props" : 0,
                    "use_mesh_edges" : 0,
                    "use_mesh_modifiers" : 1,
                    "use_metadata" : 1,
                    "use_object_origin" : 0,
                    "use_subsurf" : 0,
                    "use_tspace" : 0,
                    "use_ue2rigify" : 0,
                    "validate_materials" : 0,
                    "validate_textures" : 0
                }
            },
            "name" : "Scene_Room04"
        }
    ],
    "nodes" : [
        {
            "mesh" : 0,
            "name" : "Obj_Table_Coffee_collider",
            "translation" : [
                1.232572078704834,
                0.014136478304862976,
                0.6515253782272339
            ]
        },
        {
            "children" : [
                0
            ],
            "mesh" : 1,
            "name" : "Obj_Table_Coffee",
            "rotation" : [
                0,
                -0.7071067690849304,
                0,
                0.7071067690849304
            ],
            "translation" : [
                1.812799334526062,
                -0.0019634589552879333,
                2.709691047668457
            ]
        }
    ],
    "materials" : [
        {
            "doubleSided" : true,
            "emissiveFactor" : [
                0,
                0,
                0
            ],
            "name" : "Mat_Material",
            "pbrMetallicRoughness" : {
                "baseColorTexture" : {
                    "index" : 0,
                    "texCoord" : 0
                },
                "metallicFactor" : 0,
                "roughnessFactor" : 1
            }
        }
    ],
    "meshes" : [
        {
            "name" : "Cube.184",
            "primitives" : [
                {
                    "attributes" : {
                        "POSITION" : 0,
                        "NORMAL" : 1,
                        "TEXCOORD_0" : 2
                    },
                    "indices" : 3
                }
            ]
        },
        {
            "name" : "Obj.Table.Coffee.002",
            "primitives" : [
                {
                    "attributes" : {
                        "POSITION" : 4,
                        "NORMAL" : 5,
                        "TEXCOORD_0" : 6
                    },
                    "indices" : 7,
                    "material" : 0
                }
            ]
        }
    ],
    "textures" : [
        {
            "source" : 0
        }
    ],
    "images" : [
        {
            "mimeType" : "image/jpeg",
            "name" : "Textures-Painted",
            "uri" : "Textures/Textures-Painted.jpg"
        }
    ],
    "accessors" : [
        {
            "bufferView" : 0,
            "componentType" : 5126,
            "count" : 24,
            "max" : [
                0.014612019062042236,
                1.7513701915740967,
                0.3320118486881256
            ],
            "min" : [
                -2.5051445960998535,
                -0.004353542346507311,
                -1.5051103830337524
            ],
            "type" : "VEC3"
        },
        {
            "bufferView" : 1,
            "componentType" : 5126,
            "count" : 24,
            "type" : "VEC3"
        },
        {
            "bufferView" : 2,
            "componentType" : 5126,
            "count" : 24,
            "type" : "VEC2"
        },
        {
            "bufferView" : 3,
            "componentType" : 5123,
            "count" : 36,
            "type" : "SCALAR"
        },
        {
            "bufferView" : 4,
            "componentType" : 5126,
            "count" : 1743,
            "max" : [
                1.060854434967041,
                1.3817212581634521,
                0.8613059520721436
            ],
            "min" : [
                -1.060854434967041,
                -0.004917340353131294,
                -0.7483479976654053
            ],
            "type" : "VEC3"
        },
        {
            "bufferView" : 5,
            "componentType" : 5126,
            "count" : 1743,
            "type" : "VEC3"
        },
        {
            "bufferView" : 6,
            "componentType" : 5126,
            "count" : 1743,
            "type" : "VEC2"
        },
        {
            "bufferView" : 7,
            "componentType" : 5123,
            "count" : 4380,
            "type" : "SCALAR"
        }
    ],
    "bufferViews" : [
        {
            "buffer" : 0,
            "byteLength" : 288,
            "byteOffset" : 0
        },
        {
            "buffer" : 0,
            "byteLength" : 288,
            "byteOffset" : 288
        },
        {
            "buffer" : 0,
            "byteLength" : 192,
            "byteOffset" : 576
        },
        {
            "buffer" : 0,
            "byteLength" : 72,
            "byteOffset" : 768
        },
        {
            "buffer" : 0,
            "byteLength" : 20916,
            "byteOffset" : 840
        },
        {
            "buffer" : 0,
            "byteLength" : 20916,
            "byteOffset" : 21756
        },
        {
            "buffer" : 0,
            "byteLength" : 13944,
            "byteOffset" : 42672
        },
        {
            "buffer" : 0,
            "byteLength" : 8760,
            "byteOffset" : 56616
        }
    ],
    "buffers" : [
        {
            "byteLength" : 65376,
            "uri" : "Obj_Table_Coffee.bin"
        }
    ]
}
